<svg width="47" height="49" viewBox="0 0 47 49" fill="none" xmlns="http://www.w3.org/2000/svg">
<path fill-rule="evenodd" clip-rule="evenodd" d="M44.0003 37.8674C44.0003 37.6297 43.9012 37.5108 43.7031 37.5108C43.3008 37.5108 42.905 37.4226 42.5158 37.2461C43.6095 37.2302 44.7382 37.188 45.902 37.1196C45.9615 37.1196 46.006 37.1641 46.0358 37.2533C46.0952 37.3127 46.1249 37.3722 46.1249 37.4316C46.1249 37.6396 46.0506 37.7436 45.902 37.7436C45.1889 37.7139 44.6837 37.8179 44.3866 38.0556C44.0894 38.2636 43.8963 38.7093 43.8071 39.3928C43.718 40.0762 43.6734 41.2649 43.6734 42.9586C43.6734 44.2958 43.718 45.2467 43.8071 45.8113C43.926 46.3759 43.9854 46.7325 43.9854 46.881C43.9854 47.0593 43.9557 47.1782 43.8963 47.2376C43.8368 47.297 43.7031 47.3565 43.4951 47.4159C39.8996 48.2479 36.7349 48.6639 34.0011 48.6639C30.7621 48.6639 27.9392 48.0399 25.5322 46.7919C23.1253 45.5438 21.283 43.8501 20.0052 41.7106C18.7572 39.5711 18.1332 37.179 18.1332 34.5344C18.1332 31.652 18.8612 29.0965 20.3172 26.8678C21.6796 24.8243 23.4917 23.193 25.7535 21.9739L26.1014 22.6598C25.5227 23.0511 24.9913 23.5029 24.5071 24.0152C22.4567 26.1844 21.4315 29.1559 21.4315 32.9297C21.4315 35.8121 22.011 38.3973 23.1699 40.6854C24.3585 42.9438 25.9928 44.7118 28.0729 45.9896C30.153 47.2673 32.4856 47.9062 35.0708 47.9062C36.5863 47.9062 37.7601 47.7725 38.5921 47.505C39.4241 47.2376 40.0333 46.7176 40.4196 45.945C40.8059 45.1724 40.999 44.0284 40.999 42.5129C40.999 40.9677 40.895 39.8979 40.687 39.3036C40.5157 38.704 40.1111 38.2964 39.4734 38.0809C39.6493 38.0885 39.831 38.0966 40.0184 38.1051C41.6825 38.1844 42.9107 38.224 43.7031 38.224C43.9012 38.224 44.0003 38.1051 44.0003 37.8674ZM32.6711 20.7687L37.4035 30.082C38.7902 32.8951 39.9392 34.8365 40.8504 35.9062C41.3916 36.5414 41.9467 36.9881 42.5158 37.2461C42.1853 37.2509 41.858 37.2533 41.5339 37.2533C40.1076 37.2533 38.2355 37.179 35.9177 37.0304C35.8583 37.0304 35.7989 37.075 35.7394 37.1641C35.7097 37.2236 35.6949 37.2979 35.6949 37.387C35.6949 37.6247 35.784 37.7436 35.9623 37.7436C37.5966 37.7436 38.7407 37.8476 39.3944 38.0556C39.4211 38.0637 39.4474 38.0722 39.4734 38.0809C38.0125 38.0178 36.9462 37.9863 36.2743 37.9863C35.2838 37.9863 34.0754 38.0259 32.649 38.1051C31.302 38.1844 30.2322 38.224 29.4398 38.224C29.2813 38.224 29.2021 38.1051 29.2021 37.8674C29.2021 37.6297 29.2813 37.5108 29.4398 37.5108C30.4699 37.5108 31.2029 37.4118 31.6387 37.2137C32.1142 36.976 32.3519 36.5798 32.3519 36.0251C32.3519 35.3515 31.9557 34.2223 31.1633 32.6375L26.1014 22.6598C27.8567 21.4728 30.0466 20.8425 32.6711 20.7687ZM32.2567 19.9532C33.1795 19.8382 34.1324 19.7807 35.1154 19.7807C36.5715 19.7807 37.9532 19.9293 39.2607 20.2265C40.5979 20.4939 41.6825 20.8802 42.5145 21.3854C42.7522 21.5339 42.8859 21.6677 42.9157 21.7865C42.9751 21.8757 43.0197 22.0837 43.0494 22.4105L43.5842 27.4027C43.5842 27.4918 43.4951 27.5513 43.3168 27.581C43.1682 27.581 43.0791 27.5364 43.0494 27.4473C42.3956 25.3078 41.207 23.6586 39.4835 22.4997C37.7898 21.3408 35.6949 20.7613 33.1988 20.7613C33.021 20.7613 32.8451 20.7638 32.6711 20.7687L32.2567 19.9532ZM32.2567 19.9532C30.1389 20.217 28.1798 20.7835 26.3791 21.6528C26.1669 21.7565 25.9583 21.8635 25.7535 21.9739L24.9825 20.4543H14.4039L10.1843 29.7849C9.66927 30.9339 9.41174 32.0036 9.41174 32.9941C9.41174 34.4204 9.90699 35.5298 10.8975 36.3222C11.9276 37.1146 13.2945 37.5108 14.9982 37.5108C15.1963 37.5108 15.2954 37.6297 15.2954 37.8674C15.2954 38.1051 15.1963 38.224 14.9982 38.224C14.285 38.224 13.2549 38.1844 11.9078 38.1051C10.4022 38.0259 9.09477 37.9863 7.9854 37.9863C6.91566 37.9863 5.628 38.0259 4.12243 38.1051C2.77533 38.1844 1.68578 38.224 0.85375 38.224C0.695268 38.224 0.616028 38.1051 0.616028 37.8674C0.616028 37.6297 0.695268 37.5108 0.85375 37.5108C1.96312 37.5108 2.8942 37.2929 3.64698 36.8571C4.39977 36.3816 5.15255 35.5694 5.90534 34.4204C6.65812 33.2318 7.54958 31.4885 8.57971 29.1906L21.4761 0.842233C21.5554 0.723371 21.7337 0.66394 22.011 0.66394C22.328 0.66394 22.5062 0.723371 22.5459 0.842233L32.2567 19.9532ZM24.1505 18.7902H15.1765L19.3961 9.40022L24.1505 18.7902Z" fill="white"/>
</svg>
